<mxfile host="app.diagrams.net" modified="2024-04-23T14:47:43.021Z" agent="Mozilla/5.0 (Windows NT 10.0; Win64; x64) AppleWebKit/537.36 (KHTML, like Gecko) Chrome/123.0.0.0 Safari/537.36" version="24.2.5" etag="S6HSxj1iYs29uY8c-tYs" type="github">
  <diagram name="Page-1" id="D3VAJ1gMNvXtuMVixLOo">
    <mxGraphModel>
      <root>
        <mxCell id="0" />
        <mxCell id="1" parent="0" />
      </root>
    </mxGraphModel>
  </diagram>
</mxfile>
